<?xml version="1.0" encoding="UTF-8" standalone="no"?>
<!DOCTYPE svg PUBLIC "-//W3C//DTD SVG 1.1//EN" "http://www.w3.org/Graphics/SVG/1.1/DTD/svg11.dtd">
<svg width="100%" height="100%" viewBox="0 0 512 512" version="1.1" xmlns="http://www.w3.org/2000/svg" xmlns:xlink="http://www.w3.org/1999/xlink" xml:space="preserve" xmlns:serif="http://www.serif.com/" style="fill-rule:evenodd;clip-rule:evenodd;stroke-linejoin:round;stroke-miterlimit:2;">
    <g transform="matrix(1.57006,0,0,1.57006,-163.498,-261.275)">
        <path d="M430.238,218.588C430.238,189.791 406.859,166.411 378.062,166.411L156.312,166.411C127.515,166.411 104.135,189.791 104.135,218.588L104.135,440.338C104.135,469.135 127.515,492.514 156.312,492.514L378.062,492.514C406.859,492.514 430.238,469.135 430.238,440.338L430.238,218.588Z" style="fill:rgb(25,34,42);"/>
    </g>
    <g transform="matrix(1.57006,0,0,1.57006,-163.498,-261.275)">
        <path d="M430.238,218.588L430.238,440.338C430.238,469.135 406.859,492.514 378.062,492.514L156.312,492.514C127.515,492.514 104.135,469.135 104.135,440.338L104.135,218.588C104.135,189.791 127.515,166.411 156.312,166.411L378.062,166.411C406.859,166.411 430.238,189.791 430.238,218.588ZM407.167,218.588C407.167,202.524 394.125,189.483 378.062,189.483L156.312,189.483C140.248,189.483 127.207,202.524 127.207,218.588L127.207,440.338C127.207,456.401 140.248,469.443 156.312,469.443L378.062,469.443C394.125,469.443 407.167,456.401 407.167,440.338L407.167,218.588Z" style="fill:white;"/>
    </g>
    <g transform="matrix(1,0,0,1,-46.1575,-46.1575)">
        <g transform="matrix(1,0,0,1,643.425,184.555)">
            <path d="M-350.083,43.065C-350.083,38.119 -354.099,34.103 -359.046,34.103L-415.805,34.103C-420.751,34.103 -424.767,38.119 -424.767,43.065L-424.767,99.825C-424.767,104.771 -420.751,108.787 -415.805,108.787L-359.046,108.787C-354.099,108.787 -350.083,104.771 -350.083,99.825L-350.083,43.065Z" style="fill:white;"/>
        </g>
        <g transform="matrix(1,0,0,1,735.74,184.555)">
            <path d="M-350.083,43.065C-350.083,38.119 -354.099,34.103 -359.046,34.103L-415.805,34.103C-420.751,34.103 -424.767,38.119 -424.767,43.065L-424.767,99.825C-424.767,104.771 -420.751,108.787 -415.805,108.787L-359.046,108.787C-354.099,108.787 -350.083,104.771 -350.083,99.825L-350.083,43.065Z" style="fill:white;"/>
        </g>
        <g transform="matrix(1,0,0,1,643.425,276.87)">
            <path d="M-350.083,43.065C-350.083,38.119 -354.099,34.103 -359.046,34.103L-415.805,34.103C-420.751,34.103 -424.767,38.119 -424.767,43.065L-424.767,99.825C-424.767,104.771 -420.751,108.787 -415.805,108.787L-359.046,108.787C-354.099,108.787 -350.083,104.771 -350.083,99.825L-350.083,43.065Z" style="fill:white;"/>
        </g>
        <g transform="matrix(1,0,0,1,735.74,276.87)">
            <path d="M-350.083,43.065C-350.083,38.119 -354.099,34.103 -359.046,34.103L-415.805,34.103C-420.751,34.103 -424.767,38.119 -424.767,43.065L-424.767,99.825C-424.767,104.771 -420.751,108.787 -415.805,108.787L-359.046,108.787C-354.099,108.787 -350.083,104.771 -350.083,99.825L-350.083,43.065Z" style="fill:white;"/>
        </g>
    </g>
    <g transform="matrix(0.766578,0,0,0.766578,669.939,151.917)">
        <circle cx="-479.77" cy="75.564" r="11.5" style="fill:rgb(25,34,42);"/>
    </g>
    <g transform="matrix(0.766578,0,0,0.766578,669.939,46.4103)">
        <circle cx="-479.77" cy="75.564" r="11.5" style="fill:white;"/>
    </g>
    <g transform="matrix(0.766578,0,0,0.766578,775.536,151.917)">
        <circle cx="-479.77" cy="75.564" r="11.5" style="fill:white;"/>
    </g>
    <g transform="matrix(0.766578,0,0,0.766578,472.436,151.917)">
        <circle cx="-479.77" cy="75.564" r="11.5" style="fill:white;"/>
    </g>
    <g transform="matrix(0.766578,0,0,0.766578,577.624,151.917)">
        <circle cx="-479.77" cy="75.564" r="11.5" style="fill:rgb(25,34,42);"/>
    </g>
    <g transform="matrix(0.766578,0,0,0.766578,577.624,46.4103)">
        <circle cx="-479.77" cy="75.564" r="11.5" style="fill:white;"/>
    </g>
    <g transform="matrix(0.766578,0,0,0.766578,577.624,244.232)">
        <circle cx="-479.77" cy="75.564" r="11.5" style="fill:rgb(25,34,42);"/>
    </g>
    <g transform="matrix(0.766578,0,0,0.766578,577.624,349.645)">
        <circle cx="-479.77" cy="75.564" r="11.5" style="fill:white;"/>
    </g>
    <g transform="matrix(0.766578,0,0,0.766578,669.939,244.232)">
        <circle cx="-479.77" cy="75.564" r="11.5" style="fill:rgb(25,34,42);"/>
    </g>
    <g transform="matrix(0.766578,0,0,0.766578,669.939,349.645)">
        <circle cx="-479.77" cy="75.564" r="11.5" style="fill:white;"/>
    </g>
    <g transform="matrix(0.766578,0,0,0.766578,775.536,244.232)">
        <circle cx="-479.77" cy="75.564" r="11.5" style="fill:white;"/>
    </g>
    <g transform="matrix(0.766578,0,0,0.766578,472.436,244.232)">
        <circle cx="-479.77" cy="75.564" r="11.5" style="fill:white;"/>
    </g>
</svg>
