<svg xmlns="http://www.w3.org/2000/svg" width="511.984" height="511.984" viewBox="0 0 440 440">
  <metadata><?xpacket begin="﻿" id="W5M0MpCehiHzreSzNTczkc9d"?>
<x:xmpmeta xmlns:x="adobe:ns:meta/" x:xmptk="Adobe XMP Core 5.6-c142 79.160924, 2017/07/13-01:06:39        ">
   <rdf:RDF xmlns:rdf="http://www.w3.org/1999/02/22-rdf-syntax-ns#">
      <rdf:Description rdf:about=""/>
   </rdf:RDF>
</x:xmpmeta>
                                                                                                    
                                                                                                    
                                                                                                    
                                                                                                    
                                                                                                    
                                                                                                    
                                                                                                    
                                                                                                    
                                                                                                    
                                                                                                    
                                                                                                    
                                                                                                    
                                                                                                    
                                                                                                    
                                                                                                    
                                                                                                    
                                                                                                    
                                                                                                    
                                                                                                    
                                                                                                    
                           
<?xpacket end="w"?></metadata>
<defs>
    <style>
      .cls-1 {
        fill: #16222a;
      }

      .cls-2 {
        fill: none;
        stroke: #fff;
        stroke-width: 30px;
      }

      .cls-3, .cls-4 {
        fill: #fff;
      }

      .cls-3 {
        fill-rule: evenodd;
      }
    </style>
  </defs>
  <rect id="Rounded_Rectangle_1" data-name="Rounded Rectangle 1" class="cls-1" width="440" height="440" rx="60" ry="60"/>
  <rect id="Rounded_Rectangle_1-2" data-name="Rounded Rectangle 1" class="cls-2" width="440" height="440" rx="60" ry="60"/>
  <path id="Rounded_Rectangle_2_copy_3" data-name="Rounded Rectangle 2 copy 3" class="cls-3" d="M152,142h50a10,10,0,0,1,10,10v50a10,10,0,0,1-10,10H152a10,10,0,0,1-10-10V152A10,10,0,0,1,152,142Zm86,0h50a10,10,0,0,1,10,10v50a10,10,0,0,1-10,10H238a10,10,0,0,1-10-10V152A10,10,0,0,1,238,142Zm-86,86h50a10,10,0,0,1,10,10v50a10,10,0,0,1-10,10H152a10,10,0,0,1-10-10V238A10,10,0,0,1,152,228Zm86,0h50a10,10,0,0,1,10,10v50a10,10,0,0,1-10,10H238a10,10,0,0,1-10-10V238A10,10,0,0,1,238,228Z"/>
  <circle class="cls-4" cx="86" cy="177" r="8"/>
  <circle id="Ellipse_1_copy" data-name="Ellipse 1 copy" class="cls-4" cx="354" cy="177" r="8"/>
  <circle id="Ellipse_1_copy_2" data-name="Ellipse 1 copy 2" class="cls-4" cx="86" cy="263" r="8"/>
  <circle id="Ellipse_1_copy_2-2" data-name="Ellipse 1 copy 2" class="cls-4" cx="354" cy="263" r="8"/>
  <circle id="Ellipse_1_copy_3" data-name="Ellipse 1 copy 3" class="cls-4" cx="177" cy="354" r="8"/>
  <circle id="Ellipse_1_copy_3-2" data-name="Ellipse 1 copy 3" class="cls-4" cx="177" cy="86" r="8"/>
  <circle id="Ellipse_1_copy_4" data-name="Ellipse 1 copy 4" class="cls-4" cx="263" cy="354" r="8"/>
  <circle id="Ellipse_1_copy_4-2" data-name="Ellipse 1 copy 4" class="cls-4" cx="263" cy="86" r="8"/>
  <circle id="Ellipse_1_copy_5" data-name="Ellipse 1 copy 5" class="cls-1" cx="263" cy="177" r="8"/>
  <circle id="Ellipse_1_copy_6" data-name="Ellipse 1 copy 6" class="cls-1" cx="177" cy="177" r="8"/>
  <circle id="Ellipse_1_copy_7" data-name="Ellipse 1 copy 7" class="cls-1" cx="177" cy="263" r="8"/>
  <circle id="Ellipse_1_copy_8" data-name="Ellipse 1 copy 8" class="cls-1" cx="263" cy="263" r="8"/>
</svg>
